<mxfile host="app.diagrams.net" modified="2023-12-18T02:54:02.028Z" agent="Mozilla/5.0 (Windows NT 10.0; Win64; x64) AppleWebKit/537.36 (KHTML, like Gecko) Chrome/120.0.0.0 Safari/537.36" etag="_Ql6RGFdzqdQMRdYCXEB" version="22.1.11" type="device">
  <diagram name="Page-1" id="Nj1msJppx0WZdHMiD9yN">
    <mxGraphModel dx="1395" dy="701" grid="1" gridSize="10" guides="1" tooltips="1" connect="1" arrows="1" fold="1" page="1" pageScale="1" pageWidth="827" pageHeight="1169" math="0" shadow="0">
      <root>
        <mxCell id="0" />
        <mxCell id="1" parent="0" />
        <mxCell id="lz5HvK51e6IpNlfbEei3-13" style="edgeStyle=orthogonalEdgeStyle;rounded=0;orthogonalLoop=1;jettySize=auto;html=1;exitX=0.5;exitY=1;exitDx=0;exitDy=0;entryX=0.5;entryY=0;entryDx=0;entryDy=0;" parent="1" source="lz5HvK51e6IpNlfbEei3-1" target="lz5HvK51e6IpNlfbEei3-12" edge="1">
          <mxGeometry relative="1" as="geometry" />
        </mxCell>
        <mxCell id="lz5HvK51e6IpNlfbEei3-1" value="START" style="ellipse;whiteSpace=wrap;html=1;" parent="1" vertex="1">
          <mxGeometry x="357.5" y="30" width="80" height="40" as="geometry" />
        </mxCell>
        <mxCell id="lz5HvK51e6IpNlfbEei3-2" value="END" style="ellipse;whiteSpace=wrap;html=1;" parent="1" vertex="1">
          <mxGeometry x="578.45" y="1020" width="80" height="40" as="geometry" />
        </mxCell>
        <mxCell id="lz5HvK51e6IpNlfbEei3-17" style="edgeStyle=orthogonalEdgeStyle;rounded=0;orthogonalLoop=1;jettySize=auto;html=1;exitX=0.5;exitY=1;exitDx=0;exitDy=0;entryX=0.5;entryY=0;entryDx=0;entryDy=0;" parent="1" source="lz5HvK51e6IpNlfbEei3-5" target="lz5HvK51e6IpNlfbEei3-16" edge="1">
          <mxGeometry relative="1" as="geometry" />
        </mxCell>
        <mxCell id="lz5HvK51e6IpNlfbEei3-5" value="&lt;font face=&quot;Helvetica&quot; style=&quot;font-size: 11px;&quot;&gt;Press Enter to continue&lt;/font&gt;" style="shape=parallelogram;perimeter=parallelogramPerimeter;whiteSpace=wrap;html=1;fixedSize=1;" parent="1" vertex="1">
          <mxGeometry x="322.5" y="190" width="150" height="40" as="geometry" />
        </mxCell>
        <mxCell id="lz5HvK51e6IpNlfbEei3-14" style="edgeStyle=orthogonalEdgeStyle;rounded=0;orthogonalLoop=1;jettySize=auto;html=1;exitX=0.5;exitY=1;exitDx=0;exitDy=0;entryX=0.5;entryY=0;entryDx=0;entryDy=0;" parent="1" source="lz5HvK51e6IpNlfbEei3-12" target="lz5HvK51e6IpNlfbEei3-5" edge="1">
          <mxGeometry relative="1" as="geometry" />
        </mxCell>
        <mxCell id="lz5HvK51e6IpNlfbEei3-12" value="&lt;font style=&quot;font-size: 11px;&quot;&gt;Display Help Menu&lt;/font&gt;" style="shape=parallelogram;perimeter=parallelogramPerimeter;whiteSpace=wrap;html=1;fixedSize=1;" parent="1" vertex="1">
          <mxGeometry x="317.5" y="110" width="160" height="40" as="geometry" />
        </mxCell>
        <mxCell id="lz5HvK51e6IpNlfbEei3-34" style="edgeStyle=orthogonalEdgeStyle;rounded=0;orthogonalLoop=1;jettySize=auto;html=1;exitX=0.5;exitY=1;exitDx=0;exitDy=0;entryX=0.5;entryY=0;entryDx=0;entryDy=0;" parent="1" source="lz5HvK51e6IpNlfbEei3-16" edge="1">
          <mxGeometry relative="1" as="geometry">
            <mxPoint x="397.5" y="350" as="targetPoint" />
          </mxGeometry>
        </mxCell>
        <mxCell id="lz5HvK51e6IpNlfbEei3-16" value="&lt;font face=&quot;Helvetica&quot; style=&quot;font-size: 11px;&quot;&gt;Display Which Player Start First&lt;/font&gt;" style="shape=parallelogram;perimeter=parallelogramPerimeter;whiteSpace=wrap;html=1;fixedSize=1;" parent="1" vertex="1">
          <mxGeometry x="300" y="270" width="195" height="40" as="geometry" />
        </mxCell>
        <mxCell id="lz5HvK51e6IpNlfbEei3-54" style="edgeStyle=orthogonalEdgeStyle;rounded=0;orthogonalLoop=1;jettySize=auto;html=1;exitX=0.5;exitY=1;exitDx=0;exitDy=0;entryX=0.5;entryY=0;entryDx=0;entryDy=0;" parent="1" source="lz5HvK51e6IpNlfbEei3-55" target="lz5HvK51e6IpNlfbEei3-57" edge="1">
          <mxGeometry relative="1" as="geometry" />
        </mxCell>
        <mxCell id="lz5HvK51e6IpNlfbEei3-55" value="&lt;font style=&quot;font-size: 10px;&quot;&gt;Display Player Turn&lt;/font&gt;" style="shape=parallelogram;perimeter=parallelogramPerimeter;whiteSpace=wrap;html=1;fixedSize=1;size=10;" parent="1" vertex="1">
          <mxGeometry x="342.49999999999994" y="350" width="110" height="40" as="geometry" />
        </mxCell>
        <mxCell id="lz5HvK51e6IpNlfbEei3-56" style="edgeStyle=orthogonalEdgeStyle;rounded=0;orthogonalLoop=1;jettySize=auto;html=1;exitX=0.5;exitY=1;exitDx=0;exitDy=0;" parent="1" source="lz5HvK51e6IpNlfbEei3-57" target="lz5HvK51e6IpNlfbEei3-59" edge="1">
          <mxGeometry relative="1" as="geometry" />
        </mxCell>
        <mxCell id="lz5HvK51e6IpNlfbEei3-57" value="&lt;font style=&quot;font-size: 10px;&quot;&gt;Display Board&lt;/font&gt;" style="shape=parallelogram;perimeter=parallelogramPerimeter;whiteSpace=wrap;html=1;fixedSize=1;size=10;" parent="1" vertex="1">
          <mxGeometry x="342.49999999999994" y="430" width="110" height="40" as="geometry" />
        </mxCell>
        <mxCell id="lz5HvK51e6IpNlfbEei3-58" style="edgeStyle=orthogonalEdgeStyle;rounded=0;orthogonalLoop=1;jettySize=auto;html=1;exitX=0.5;exitY=1;exitDx=0;exitDy=0;entryX=0.5;entryY=0;entryDx=0;entryDy=0;" parent="1" source="lz5HvK51e6IpNlfbEei3-59" target="lz5HvK51e6IpNlfbEei3-60" edge="1">
          <mxGeometry relative="1" as="geometry" />
        </mxCell>
        <mxCell id="lz5HvK51e6IpNlfbEei3-59" value="&lt;span style=&quot;font-size: 10px;&quot;&gt;Prompt Player for choice&lt;/span&gt;" style="shape=parallelogram;perimeter=parallelogramPerimeter;whiteSpace=wrap;html=1;fixedSize=1;size=10;" parent="1" vertex="1">
          <mxGeometry x="342.49999999999994" y="500" width="110" height="40" as="geometry" />
        </mxCell>
        <mxCell id="1GhFtBVI0EyVr6f6l5IA-22" style="edgeStyle=orthogonalEdgeStyle;rounded=0;orthogonalLoop=1;jettySize=auto;html=1;exitX=0.5;exitY=1;exitDx=0;exitDy=0;entryX=0.5;entryY=0;entryDx=0;entryDy=0;" edge="1" parent="1" source="lz5HvK51e6IpNlfbEei3-60" target="1GhFtBVI0EyVr6f6l5IA-4">
          <mxGeometry relative="1" as="geometry" />
        </mxCell>
        <mxCell id="1GhFtBVI0EyVr6f6l5IA-24" value="Yes" style="edgeLabel;html=1;align=center;verticalAlign=middle;resizable=0;points=[];" vertex="1" connectable="0" parent="1GhFtBVI0EyVr6f6l5IA-22">
          <mxGeometry x="-0.0571" y="3" relative="1" as="geometry">
            <mxPoint as="offset" />
          </mxGeometry>
        </mxCell>
        <mxCell id="1GhFtBVI0EyVr6f6l5IA-28" style="edgeStyle=orthogonalEdgeStyle;rounded=0;orthogonalLoop=1;jettySize=auto;html=1;exitX=1;exitY=0.5;exitDx=0;exitDy=0;entryX=0.5;entryY=1;entryDx=0;entryDy=0;" edge="1" parent="1" source="lz5HvK51e6IpNlfbEei3-60" target="1GhFtBVI0EyVr6f6l5IA-25">
          <mxGeometry relative="1" as="geometry" />
        </mxCell>
        <mxCell id="1GhFtBVI0EyVr6f6l5IA-29" value="No" style="edgeLabel;html=1;align=center;verticalAlign=middle;resizable=0;points=[];" vertex="1" connectable="0" parent="1GhFtBVI0EyVr6f6l5IA-28">
          <mxGeometry x="-0.5313" relative="1" as="geometry">
            <mxPoint as="offset" />
          </mxGeometry>
        </mxCell>
        <mxCell id="lz5HvK51e6IpNlfbEei3-60" value="&lt;font size=&quot;1&quot;&gt;Is there 3 in a row?&lt;/font&gt;" style="rhombus;whiteSpace=wrap;html=1;" parent="1" vertex="1">
          <mxGeometry x="336.5799999999999" y="575" width="125" height="80" as="geometry" />
        </mxCell>
        <mxCell id="1GhFtBVI0EyVr6f6l5IA-8" style="edgeStyle=orthogonalEdgeStyle;rounded=0;orthogonalLoop=1;jettySize=auto;html=1;exitX=0.5;exitY=1;exitDx=0;exitDy=0;" edge="1" parent="1" target="1GhFtBVI0EyVr6f6l5IA-5">
          <mxGeometry relative="1" as="geometry">
            <mxPoint x="398.75" y="780" as="sourcePoint" />
          </mxGeometry>
        </mxCell>
        <mxCell id="1GhFtBVI0EyVr6f6l5IA-4" value="Current Player of the Round wins the game" style="rounded=0;whiteSpace=wrap;html=1;" vertex="1" parent="1">
          <mxGeometry x="339.08000000000004" y="720" width="120" height="60" as="geometry" />
        </mxCell>
        <mxCell id="1GhFtBVI0EyVr6f6l5IA-10" style="edgeStyle=orthogonalEdgeStyle;rounded=0;orthogonalLoop=1;jettySize=auto;html=1;exitX=0.5;exitY=1;exitDx=0;exitDy=0;entryX=0.5;entryY=0;entryDx=0;entryDy=0;" edge="1" parent="1" source="1GhFtBVI0EyVr6f6l5IA-5" target="1GhFtBVI0EyVr6f6l5IA-9">
          <mxGeometry relative="1" as="geometry" />
        </mxCell>
        <mxCell id="1GhFtBVI0EyVr6f6l5IA-5" value="&lt;font style=&quot;font-size: 10px;&quot;&gt;Output the Winning Player&lt;/font&gt;" style="shape=parallelogram;perimeter=parallelogramPerimeter;whiteSpace=wrap;html=1;fixedSize=1;" vertex="1" parent="1">
          <mxGeometry x="317.5" y="820" width="162.5" height="30" as="geometry" />
        </mxCell>
        <mxCell id="1GhFtBVI0EyVr6f6l5IA-23" style="edgeStyle=orthogonalEdgeStyle;rounded=0;orthogonalLoop=1;jettySize=auto;html=1;exitX=0.5;exitY=1;exitDx=0;exitDy=0;entryX=0.5;entryY=0;entryDx=0;entryDy=0;" edge="1" parent="1" source="1GhFtBVI0EyVr6f6l5IA-9" target="1GhFtBVI0EyVr6f6l5IA-11">
          <mxGeometry relative="1" as="geometry" />
        </mxCell>
        <mxCell id="1GhFtBVI0EyVr6f6l5IA-9" value="&lt;span style=&quot;font-size: 10px;&quot;&gt;Prompt user to play another game or to end&lt;/span&gt;" style="shape=parallelogram;perimeter=parallelogramPerimeter;whiteSpace=wrap;html=1;fixedSize=1;size=3.75;" vertex="1" parent="1">
          <mxGeometry x="317.5" y="910" width="163.75" height="40" as="geometry" />
        </mxCell>
        <mxCell id="1GhFtBVI0EyVr6f6l5IA-12" style="edgeStyle=orthogonalEdgeStyle;rounded=0;orthogonalLoop=1;jettySize=auto;html=1;exitX=1;exitY=0.5;exitDx=0;exitDy=0;entryX=0;entryY=0.5;entryDx=0;entryDy=0;" edge="1" parent="1" target="lz5HvK51e6IpNlfbEei3-2">
          <mxGeometry relative="1" as="geometry">
            <mxPoint x="464.07999999999987" y="1040" as="sourcePoint" />
          </mxGeometry>
        </mxCell>
        <mxCell id="1GhFtBVI0EyVr6f6l5IA-13" value="No" style="edgeLabel;html=1;align=center;verticalAlign=middle;resizable=0;points=[];" vertex="1" connectable="0" parent="1GhFtBVI0EyVr6f6l5IA-12">
          <mxGeometry x="-0.2849" y="1" relative="1" as="geometry">
            <mxPoint x="21" y="1" as="offset" />
          </mxGeometry>
        </mxCell>
        <mxCell id="1GhFtBVI0EyVr6f6l5IA-16" style="edgeStyle=orthogonalEdgeStyle;rounded=0;orthogonalLoop=1;jettySize=auto;html=1;exitX=0;exitY=0.5;exitDx=0;exitDy=0;" edge="1" parent="1" source="1GhFtBVI0EyVr6f6l5IA-11">
          <mxGeometry relative="1" as="geometry">
            <mxPoint x="310" y="290" as="targetPoint" />
            <mxPoint x="380" y="950" as="sourcePoint" />
            <Array as="points">
              <mxPoint x="40" y="1040" />
              <mxPoint x="40" y="290" />
            </Array>
          </mxGeometry>
        </mxCell>
        <mxCell id="1GhFtBVI0EyVr6f6l5IA-19" value="Yes" style="edgeLabel;html=1;align=center;verticalAlign=middle;resizable=0;points=[];" vertex="1" connectable="0" parent="1GhFtBVI0EyVr6f6l5IA-16">
          <mxGeometry x="-0.8412" y="1" relative="1" as="geometry">
            <mxPoint x="-24" y="-1" as="offset" />
          </mxGeometry>
        </mxCell>
        <mxCell id="1GhFtBVI0EyVr6f6l5IA-11" value="&lt;font size=&quot;1&quot;&gt;Play another game?&lt;/font&gt;" style="rhombus;whiteSpace=wrap;html=1;" vertex="1" parent="1">
          <mxGeometry x="336.88" y="1000" width="125" height="80" as="geometry" />
        </mxCell>
        <mxCell id="1GhFtBVI0EyVr6f6l5IA-27" style="edgeStyle=orthogonalEdgeStyle;rounded=0;orthogonalLoop=1;jettySize=auto;html=1;exitX=0.5;exitY=0;exitDx=0;exitDy=0;entryX=1;entryY=0.5;entryDx=0;entryDy=0;" edge="1" parent="1" source="1GhFtBVI0EyVr6f6l5IA-25" target="lz5HvK51e6IpNlfbEei3-55">
          <mxGeometry relative="1" as="geometry">
            <mxPoint x="539.1666666666667" y="340" as="targetPoint" />
            <Array as="points">
              <mxPoint x="539" y="370" />
            </Array>
          </mxGeometry>
        </mxCell>
        <mxCell id="1GhFtBVI0EyVr6f6l5IA-25" value="Next Player" style="rounded=0;whiteSpace=wrap;html=1;" vertex="1" parent="1">
          <mxGeometry x="499.7" y="490" width="78.75" height="35" as="geometry" />
        </mxCell>
      </root>
    </mxGraphModel>
  </diagram>
</mxfile>
